<?xml version="1.0" encoding="utf-8"?>
<!-- Generator: Adobe Illustrator 16.0.3, SVG Export Plug-In . SVG Version: 6.00 Build 0)  -->
<!DOCTYPE svg PUBLIC "-//W3C//DTD SVG 1.1//EN" "http://www.w3.org/Graphics/SVG/1.1/DTD/svg11.dtd">
<svg version="1.1" id="Layer_1" xmlns="http://www.w3.org/2000/svg" xmlns:xlink="http://www.w3.org/1999/xlink" x="0px" y="0px"
	 width="85px" height="44.5px" viewBox="0 0 85 44.5" enable-background="new 0 0 85 44.5" xml:space="preserve">
<g>
	<path d="M21.087,0.002h-1.581L7.729,22.291h1.577L21.087,0.002z M12.463,22.291L0,44.5h1.577l12.466-22.209H12.463z M30.692,0.002
		h-1.581L11.056,44.5h7.455l0.604-1.49h-5.876L30.692,0.002z M72.799,1.492l0.604-1.49h-3.051l-0.605,1.49H72.799z M62.087,44.5
		l5.312,0.002l0.502-1.5l-5.211,0.008L62.087,44.5z M78.542,0L60.488,44.5h1.578l8.578-21.146h4.898l0.604-1.489h-4.897
		l8.267-20.374h4.981L85,0H78.542z M40.891,0.002L22.829,44.5h1.58L42.472,0.002H40.891z M50.059,0.002L32.003,44.5h1.581
		L51.639,0.002H50.059z M59.538,0.002L41.477,44.5h1.58l18.06-44.499H59.538z M70.318,0.002h-1.582L50.686,44.5h4.502l0.604-1.49
		h-2.922L70.318,0.002z"/>
</g>
</svg>
